<?xml version="1.0" encoding="UTF-8"?>
<!DOCTYPE svg PUBLIC "-//W3C//DTD SVG 1.1//EN" "http://www.w3.org/Graphics/SVG/1.1/DTD/svg11.dtd">
<!-- Creator: CorelDRAW -->
<svg xmlns="http://www.w3.org/2000/svg" xml:space="preserve" width="1.70666in" height="1.70666in" version="1.1" style="shape-rendering:geometricPrecision; text-rendering:geometricPrecision; image-rendering:optimizeQuality; fill-rule:evenodd; clip-rule:evenodd"
viewBox="0 0 1707 1707"
 xmlns:xlink="http://www.w3.org/1999/xlink">
 <defs>
  <style type="text/css">
   <![CDATA[
    .fil5 {fill:#091331}
    .fil1 {fill:#222F3D}
    .fil6 {fill:#262D43}
    .fil8 {fill:#2D80B8}
    .fil0 {fill:#2F4054}
    .fil7 {fill:#37A3C8}
    .fil3 {fill:#ABB7C1}
    .fil9 {fill:#BCD7E9}
    .fil2 {fill:#C9D9E5}
    .fil4 {fill:#D8E6EE}
   ]]>
  </style>
 </defs>
 <g id="Layer_x0020_1">
  <metadata id="CorelCorpID_0Corel-Layer"/>
  <g id="_557813200">
   <path class="fil0" d="M1607 1521l-726 0c-54,0 -98,-44 -98,-98l0 -484c0,-14 11,-25 25,-25l604 -343c0,-14 11,-25 25,-25l171 0c54,0 98,45 98,99l0 776c-1,56 -45,100 -99,100z"/>
   <path class="fil1" d="M1548 1446l-610 0c-47,0 -86,-39 -86,-86l0 -456c0,-14 11,-25 25,-25 51,-24 517,-259 519,-259l154 0c47,0 86,38 86,86l0 653c0,48 -39,87 -88,87z"/>
   <path class="fil2" d="M1098 1233c-45,0 -92,-5 -124,-35 -19,-18 -29,-44 -29,-76l0 -261c0,-14 11,-25 25,-25l172 -80c14,0 25,11 25,25l0 224 195 -43c7,-1 16,0 21,4 6,5 10,11 10,20l0 173c0,11 -8,21 -19,24l-225 48c-2,0 -3,0 -6,0 -7,0 -14,0 -21,0 -8,2 -16,2 -24,2z"/>
   <path class="fil3" d="M701 947c-7,-11 1,19 14,12 4,-2 -14,-19 -9,-21l-2 -241 0 -2 27 -11 684 -256c0,-12 8,-22 21,-25 14,-1 25,7 28,21 9,72 14,201 -71,254 -94,58 -216,114 -345,173 -107,49 -246,101 -339,153 -14,-8 -1,-44 -8,-57z"/>
   <path class="fil4" d="M694 733c-10,0 -19,-5 -22,-15 -4,-12 1,-26 14,-32l-598 -306c-14,2 -26,-7 -28,-20 -3,-14 7,-26 20,-27l902 -147c2,0 3,0 5,0l339 0c39,0 71,13 95,41 53,77 42,201 43,203l-738 266c-3,1 -29,37 -32,37z"/>
   <path class="fil5" d="M235 744l-57 0c-8,0 -17,-4 -21,-12l-147 -250c-1,-1 -1,-2 -1,-4 -2,-3 -24,-64 10,-109 20,-30 55,-42 105,-42 1,0 1,0 3,0l395 43c0,0 1,0 1,0 49,0 114,111 196,330 4,13 -1,26 -14,32 -12,4 -399,12 -470,12z"/>
   <path class="fil6" d="M700 1005c-2,0 -2,0 -3,0l-465 -58c-12,-1 -21,-13 -21,-24l0 -466c0,-7 3,-13 9,-18 5,-4 12,-7 19,-5l385 47 102 215 0 284c0,7 -3,14 -8,18 -6,6 -11,7 -18,7z"/>
   <path class="fil0" d="M632 904c-2,0 -2,0 -3,0l-301 -35c-13,-1 -21,-11 -21,-23l0 -287c0,-7 3,-14 8,-18 6,-5 13,-7 20,-6l301 36c12,1 21,13 21,24l0 284c0,7 -3,14 -9,18 -5,4 -11,7 -16,7z"/>
   <path class="fil7" d="M480 805c-43,0 -77,-38 -77,-86 0,-47 34,-85 77,-85 43,0 78,38 78,85 1,48 -35,86 -78,86z"/>
   <path class="fil8" d="M480 682c-16,0 -29,17 -29,37 0,21 14,38 29,38 16,0 29,-17 29,-38 0,-20 -12,-37 -29,-37z"/>
   <path class="fil9" d="M460 682c-5,0 -9,5 -9,11 0,6 4,11 9,11 5,0 9,-5 9,-11 0,-6 -4,-11 -9,-11z"/>
  </g>
 </g>
</svg>
